<?xml version="1.0" encoding="UTF-8"?>
<svg xmlns="http://www.w3.org/2000/svg" width="159" height="74" viewBox="0 0 159 74" fill="none">
  <g clip-path="url(#clip0_36_259)">
    <path d="M22.1538 47.5439C22.3659 48.6036 22.2598 49.522 21.8592 50.2991C21.4468 51.0762 20.8693 51.759 20.0916 52.336C21.105 53.5252 22.1184 54.7261 23.1083 55.9271C23.3911 56.2685 23.7093 56.5158 24.0392 56.6688C24.3809 56.8219 24.6873 57.0103 24.9583 57.2222C25.2412 57.4341 25.4297 57.7991 25.524 58.3054C25.63 58.8353 25.5475 59.2474 25.2765 59.5535C25.0173 59.8596 24.6284 60.0598 24.1217 60.154C22.1066 60.5543 20.0916 60.9781 18.0883 61.4256C17.0042 61.661 16.3561 61.2843 16.1204 60.2835C16.0262 59.8949 16.0969 59.4946 16.3208 59.0943C16.309 59.0001 16.309 58.9059 16.3208 58.8117C16.3325 58.7175 16.3208 58.6233 16.2972 58.5291C16.2736 58.4114 16.144 58.1759 15.9201 57.8462C15.6962 57.5048 15.4252 57.1398 15.1188 56.7159C14.8124 56.3038 14.506 55.9153 14.2232 55.5385C14.1054 55.5738 13.9993 55.6092 13.8933 55.6327C13.3041 55.774 12.6913 55.8446 12.0668 55.8564C12.2318 56.5511 12.3967 57.2458 12.5617 57.9404C12.6206 58.1995 12.6795 58.3643 12.7267 58.4585C12.7738 58.5409 12.9152 58.6704 13.1391 58.847C13.5044 59.1178 13.8226 59.3651 14.1054 59.577C14.3882 59.789 14.5767 60.1422 14.6946 60.6249C14.8242 61.1548 14.7535 61.5786 14.506 61.8847C14.2586 62.1909 13.8697 62.4028 13.363 62.5323C11.0651 63.0857 8.77907 63.6626 6.50478 64.2749C5.99807 64.4044 5.56207 64.4044 5.19677 64.2396C4.83147 64.0865 4.57222 63.745 4.43082 63.227C4.30119 62.756 4.30119 62.3793 4.43082 62.0967C4.56044 61.8259 4.7372 61.5786 4.96109 61.3667C5.18498 61.1547 5.36174 60.931 5.50315 60.6838C5.64456 60.4365 5.66812 60.1186 5.56207 59.7183C4.67828 56.3863 3.7827 53.0542 2.89891 49.7221C2.79286 49.3218 2.6161 49.051 2.35685 48.9097C2.09761 48.7684 1.82658 48.6625 1.50841 48.5918C1.20203 48.5212 0.919217 48.4034 0.648188 48.2386C0.388942 48.0738 0.188616 47.7559 0.0589932 47.2849C-0.0824134 46.7668 -0.023494 46.343 0.235752 46.0133C0.494997 45.6836 0.895649 45.4481 1.42592 45.3069C4.19514 44.5651 6.98792 43.8704 9.76892 43.2111C10.6881 42.9874 11.6779 42.8343 12.7267 42.7283C13.7754 42.6224 14.8124 42.6224 15.8258 42.7166C16.851 42.8108 17.8055 43.0345 18.6775 43.3877C19.5613 43.7409 20.3037 44.259 20.9047 44.9419C21.541 45.613 21.9417 46.4843 22.1538 47.5439ZM9.74535 46.131C10.3228 48.5683 10.912 51.0055 11.4894 53.431C11.7015 53.3956 11.9489 53.3485 12.22 53.2897C13.3984 53.0071 14.1761 52.5008 14.5414 51.7355C14.9067 50.982 14.9774 50.0754 14.7417 49.0275C14.506 47.956 13.9522 47.1201 13.0802 46.5314C12.2082 45.9427 11.1712 45.7778 9.98103 46.0722C9.92211 46.0957 9.82784 46.1193 9.74535 46.131Z" fill="white"></path>
    <path d="M38.1563 37.3123C40.3363 37.0179 42.316 37.1945 44.0718 37.8303C45.8276 38.4779 47.2535 39.514 48.3376 40.9387C49.4217 42.3633 50.058 44.0941 50.2701 46.1193C50.4823 48.1797 50.223 50.04 49.5278 51.7119C48.8325 53.3839 47.7602 54.7497 46.3225 55.8329C44.8731 56.9161 43.1055 57.5872 40.9962 57.8816C38.8516 58.1759 36.9543 58.0228 35.2693 57.3988C33.5842 56.7748 32.1819 55.774 31.0742 54.3611C29.9665 52.9482 29.2123 51.2174 28.847 49.1334C28.4935 47.1436 28.6467 45.3069 29.3184 43.6349C29.9901 41.963 31.086 40.5501 32.6061 39.4434C34.138 38.3248 35.9881 37.6066 38.1563 37.3123ZM43.3412 51.3116C43.1527 49.8281 42.8227 48.4152 42.3396 47.0494C42.21 46.708 42.0214 46.2488 41.774 45.6836C41.5147 45.1185 41.2083 44.518 40.8548 43.9057C40.4895 43.2817 40.1006 42.7048 39.6646 42.1632C39.2286 41.6216 38.7691 41.1977 38.2977 40.8798C37.8146 40.5737 37.3314 40.4442 36.8483 40.5148C36.3298 40.5855 35.9999 40.8327 35.8467 41.2684C35.6935 41.6922 35.6228 42.1632 35.6581 42.6695C35.6935 43.1758 35.7288 43.5996 35.776 43.9293C35.9527 45.0832 36.2237 46.2252 36.6008 47.3555C36.9779 48.4859 37.4493 49.5573 38.0267 50.5934C38.1917 50.8995 38.4273 51.2763 38.7337 51.7473C39.0401 52.2182 39.3936 52.6892 39.7943 53.1484C40.1949 53.6076 40.6074 53.9843 41.0316 54.2787C41.4558 54.573 41.8682 54.6908 42.2689 54.6437C42.752 54.5848 43.082 54.3376 43.2352 53.9372C43.3883 53.5252 43.459 53.066 43.4473 52.5715C43.4119 52.0534 43.3884 51.6413 43.3412 51.3116Z" fill="white"></path>
    <path d="M62.8318 53.5605C62.8671 54.1021 62.7257 54.5024 62.4311 54.7968C62.1365 55.0793 61.7241 55.2324 61.2056 55.2677C60.1333 55.3384 59.0727 55.409 58.0004 55.4914C57.4819 55.5267 57.0577 55.4443 56.7277 55.2206C56.3978 54.9969 56.2092 54.6201 56.1621 54.0903C56.1267 53.6429 56.1857 53.2897 56.3506 53.0542C56.5156 52.8187 56.7041 52.6185 56.9398 52.4537C57.1755 52.2889 57.3758 52.0887 57.5526 51.865C57.7293 51.6413 57.8118 51.3116 57.8118 50.876C57.7883 47.4144 57.7883 43.9411 57.7883 40.4795C57.7883 40.4324 57.7765 40.3971 57.7765 40.35C57.7529 39.9968 57.6351 39.7259 57.4112 39.5611C57.1991 39.3963 56.9516 39.2432 56.6806 39.1137C56.4095 38.9842 56.1621 38.8076 55.9382 38.5839C55.7143 38.3602 55.5847 38.0187 55.5493 37.5713C55.5022 37.0415 55.6436 36.6411 55.9618 36.3703C56.2799 36.0995 56.7042 35.9347 57.2462 35.8994C59.0609 35.7699 60.8639 35.6521 62.6786 35.5462C63.7038 35.4873 64.4815 35.7228 65.0354 36.2526C65.5774 36.7707 66.0134 37.4418 66.3434 38.2306C67.2625 40.4559 68.1699 42.6812 69.0655 44.9183C69.7725 42.6341 70.4913 40.3382 71.2337 38.054C71.5047 37.2063 71.8936 36.5116 72.4003 35.9583C72.907 35.4166 73.6847 35.1341 74.7217 35.1105C76.5718 35.087 78.4101 35.0752 80.2601 35.0752C80.814 35.0752 81.2618 35.2047 81.5917 35.452C81.9217 35.6992 82.0866 36.0878 82.0866 36.6294C82.0866 37.0768 81.9806 37.4182 81.7685 37.6655C81.5682 37.9127 81.3325 38.1129 81.0614 38.2777C80.7904 38.4426 80.5547 38.6074 80.3544 38.7723C80.1541 38.9489 80.048 39.1843 80.048 39.4905V39.5611C80.2484 43.058 80.4487 46.5549 80.6372 50.0518C80.6608 50.511 80.7669 50.8524 80.9436 51.0526C81.1204 51.2528 81.3207 51.4176 81.5446 51.5471C81.7685 51.6766 81.957 51.8415 82.122 52.0416C82.287 52.2418 82.3695 52.5832 82.3695 53.0542C82.3695 53.584 82.2045 53.9843 81.9099 54.2669C81.6035 54.5495 81.1911 54.6908 80.649 54.679C78.2569 54.6672 75.8648 54.6908 73.4844 54.7379C72.9659 54.7497 72.5535 54.6319 72.2353 54.3964C71.9171 54.161 71.7522 53.7724 71.7404 53.2308C71.7286 52.8069 71.8111 52.4655 71.9996 52.2065C72.1882 51.9474 72.4003 51.7355 72.6595 51.5707C72.907 51.394 73.1309 51.2292 73.3194 51.0526C73.508 50.876 73.6022 50.6523 73.5905 50.3697V50.2873C73.3784 48.0384 73.1662 45.8014 72.9424 43.5525C71.9879 46.3548 71.0687 49.157 70.1731 51.9592C70.0435 52.3831 69.8785 52.7834 69.69 53.1837C69.5014 53.584 69.2422 53.9137 68.924 54.1727C68.6059 54.4318 68.1934 54.573 67.6749 54.5966C67.0151 54.6201 66.5201 54.5377 66.1902 54.3258C65.8602 54.1139 65.5303 53.7371 65.2003 53.2073C64.9647 52.8305 64.7525 52.4419 64.5876 52.0298C63.4445 49.31 62.2661 46.5902 61.0524 43.8822C61.0288 46.131 61.0171 48.3799 61.0053 50.6287C61.0053 50.6641 61.0053 50.6994 61.017 50.7465C61.0406 51.0644 61.1349 51.3234 61.3116 51.5118C61.4884 51.7002 61.6887 51.8768 61.9008 52.0298C62.113 52.1829 62.3133 52.3831 62.49 52.6068C62.7139 52.854 62.8082 53.1719 62.8318 53.5605Z" fill="white"></path>
    <path d="M95.0136 53.5605C94.99 54.1021 94.8015 54.4789 94.4715 54.7143C94.1416 54.938 93.7173 55.044 93.1988 55.0205C91.8201 54.9498 90.4414 54.9027 89.0627 54.8556C88.5442 54.8438 88.1318 54.7026 87.8136 54.4553C87.4954 54.208 87.3423 53.8077 87.354 53.2544C87.3658 52.7952 87.4954 52.4655 87.7547 52.2536C88.0022 52.0416 88.285 51.7944 88.5913 51.5353C88.8742 51.2999 89.0863 51.0291 89.2277 50.7347C89.3691 50.4403 89.5105 50.1224 89.6401 49.8045C90.8539 46.6255 92.1147 43.4583 93.3992 40.3029C93.4699 40.1498 93.5288 39.985 93.5995 39.8201C93.6584 39.6553 93.6938 39.4905 93.7056 39.3021C93.7173 39.0902 93.6466 38.9135 93.4934 38.784C93.3403 38.6545 93.1635 38.525 92.975 38.3837C92.7746 38.2424 92.6097 38.0658 92.4565 37.8421C92.3033 37.6184 92.2444 37.3005 92.2561 36.9002C92.2797 36.3586 92.4682 35.9818 92.8218 35.7463C93.1753 35.5108 93.6231 35.4166 94.1769 35.4402C97.8535 35.6168 101.53 35.8641 105.195 36.182C105.749 36.2291 106.185 36.3939 106.503 36.6647C106.821 36.9355 106.951 37.3476 106.904 37.8892C106.868 38.2777 106.774 38.5721 106.609 38.7605C106.444 38.9606 106.267 39.1137 106.079 39.2197C105.89 39.3256 105.713 39.4434 105.56 39.5611C105.407 39.6789 105.324 39.8555 105.301 40.0792C105.289 40.244 105.301 40.3971 105.324 40.5619C105.36 40.7267 105.395 40.8798 105.431 41.0329C106.22 43.9764 106.974 46.9081 107.705 49.8516C107.823 50.3108 107.905 50.7229 107.952 51.0879C108.011 51.4529 108.117 51.7944 108.27 52.124C108.424 52.4537 108.695 52.7834 109.072 53.1366C109.378 53.4074 109.578 53.6429 109.696 53.8548C109.814 54.0668 109.849 54.3729 109.802 54.785C109.743 55.3266 109.543 55.7034 109.201 55.9153C108.86 56.1155 108.424 56.1979 107.917 56.1508C105.478 55.9035 103.05 55.6916 100.611 55.515C100.092 55.4797 99.68 55.3266 99.3736 55.0676C99.0672 54.8085 98.9258 54.3964 98.973 53.8548C98.9965 53.4663 99.1026 53.1719 99.2911 52.9718C99.4797 52.7716 99.68 52.6068 99.9157 52.5008C100.151 52.3948 100.363 52.2889 100.54 52.1947C100.717 52.1005 100.811 51.971 100.823 51.8061C100.835 51.6766 100.823 51.5353 100.799 51.4058C100.776 51.2763 100.741 51.1468 100.705 51.0173C100.587 50.5228 100.47 50.0283 100.34 49.5455C98.0656 49.3807 95.7795 49.2394 93.4934 49.1334C93.4699 49.2041 93.4345 49.2629 93.411 49.3336C93.3167 49.5573 93.2106 49.8045 93.0692 50.0753C92.9278 50.3462 92.8571 50.6052 92.8453 50.8407C92.8335 51.0997 92.9396 51.3234 93.1635 51.5C93.3874 51.6766 93.6466 51.8532 93.9412 52.0181C94.2358 52.1947 94.4951 52.3948 94.719 52.6421C94.9429 52.8187 95.0371 53.1484 95.0136 53.5605ZM94.7308 45.9662C96.3334 46.0486 97.9242 46.1428 99.515 46.2606C98.8905 43.8469 98.2423 41.4332 97.5825 39.0195C96.6162 41.3272 95.6617 43.6349 94.7308 45.9662Z" fill="white"></path>
    <path d="M123.99 56.6335C123.908 57.1751 123.684 57.5401 123.318 57.7285C122.953 57.9169 122.529 57.9757 122.01 57.8933C120.585 57.6814 119.171 57.4695 117.745 57.2811C117.226 57.2104 116.826 57.0338 116.543 56.7512C116.248 56.4687 116.142 56.0566 116.213 55.515C116.272 55.0205 116.437 54.6672 116.696 54.4671C116.955 54.2669 117.25 54.1139 117.58 54.0079C117.91 53.9019 118.204 53.7606 118.464 53.584C118.723 53.4074 118.888 53.0895 118.947 52.6421C119.336 49.8399 119.724 47.0259 120.113 44.2236C120.208 43.5761 120.184 43.0933 120.043 42.7519C119.901 42.4222 119.63 41.9983 119.206 41.5038C118.923 41.1624 118.617 40.7621 118.263 40.2911C117.91 39.8319 117.768 39.361 117.827 38.9018C117.886 38.4661 118.086 38.1482 118.452 37.9481C118.817 37.7479 119.218 37.689 119.665 37.7479C121.245 37.9598 122.835 38.1835 124.414 38.419C124.862 38.4897 125.204 38.5603 125.463 38.6545C125.711 38.7487 125.934 38.8782 126.123 39.0666C126.312 39.255 126.524 39.514 126.759 39.8672C129.352 43.6703 131.85 47.5204 134.219 51.3823C134.619 49.2865 135.02 47.2025 135.421 45.1067C135.503 44.6475 135.456 44.2943 135.256 44.047C135.055 43.7998 134.808 43.5761 134.525 43.3759C134.242 43.1758 133.995 42.9403 133.794 42.6695C133.594 42.3987 133.547 42.0101 133.629 41.5038C133.724 40.9622 133.971 40.609 134.36 40.4324C134.749 40.2558 135.208 40.2205 135.762 40.3264C137.271 40.609 138.791 40.9151 140.299 41.2213C140.829 41.3272 141.254 41.5392 141.548 41.8571C141.843 42.175 141.937 42.587 141.819 43.1169C141.701 43.682 141.466 44.0353 141.136 44.1765C140.794 44.3178 140.37 44.4709 139.863 44.6357C139.498 44.7417 139.25 44.8712 139.097 45.0125C138.956 45.1538 138.85 45.401 138.779 45.766C138.237 48.4505 137.683 51.1468 137.141 53.8313C137.047 54.2669 137 54.7143 136.976 55.1853C136.952 55.6445 137.023 56.0919 137.188 56.5275C137.341 56.9396 137.518 57.3635 137.707 57.8227C137.895 58.2819 137.942 58.7293 137.848 59.1767C137.754 59.6241 137.542 59.9656 137.2 60.1893C136.858 60.413 136.469 60.4719 136.01 60.3777C134.407 60.048 132.804 59.7419 131.202 59.4475C130.801 59.3769 130.507 59.2238 130.295 59.0001C130.082 58.7764 130.023 58.4585 130.094 58.0346C130.141 57.7638 130.059 57.4459 129.835 57.0692C129.611 56.7042 129.434 56.398 129.305 56.1743C127.349 52.9835 125.31 49.8045 123.201 46.6491C122.882 48.8038 122.553 50.9584 122.234 53.1131C122.175 53.4898 122.187 53.7606 122.27 53.9373C122.352 54.1139 122.529 54.314 122.835 54.5495C123.224 54.8792 123.542 55.1735 123.802 55.4208C124.002 55.668 124.084 56.0684 123.99 56.6335Z" fill="white"></path>
    <path d="M156.137 49.7104C155.253 53.0424 154.357 56.3745 153.473 59.7065C153.367 60.0951 153.391 60.413 153.521 60.6485C153.662 60.8839 153.839 61.1077 154.051 61.3196C154.263 61.5315 154.44 61.7788 154.569 62.0496C154.699 62.3322 154.687 62.7089 154.558 63.1917C154.416 63.7097 154.157 64.0512 153.78 64.2042C153.403 64.3573 152.967 64.3691 152.472 64.2278C150.044 63.5802 147.617 62.968 145.189 62.391C144.683 62.2733 144.306 62.0496 144.046 61.7435C143.799 61.4373 143.728 61.0135 143.846 60.4836C143.952 60.0009 144.129 59.6712 144.376 59.4828C144.624 59.2944 144.883 59.1649 145.178 59.0825C145.472 59.0001 145.731 58.8824 145.967 58.7411C146.203 58.588 146.368 58.3172 146.462 57.9287C147.263 54.573 148.065 51.2174 148.878 47.8618C148.972 47.4615 148.948 47.1436 148.795 46.9081C148.642 46.6726 148.454 46.4489 148.218 46.237C147.982 46.0369 147.794 45.7896 147.652 45.5188C147.511 45.248 147.487 44.8594 147.605 44.3885C147.723 43.8586 147.982 43.5172 148.371 43.3524C148.76 43.1875 149.219 43.1758 149.762 43.3053C152.366 43.9293 154.958 44.5769 157.551 45.2715C158.093 45.4128 158.493 45.6483 158.753 45.978C159.012 46.3077 159.071 46.7315 158.929 47.2496C158.8 47.7205 158.599 48.0502 158.34 48.2268C158.081 48.4034 157.798 48.5212 157.492 48.5918C157.185 48.6625 156.914 48.7684 156.667 48.9097C156.419 49.0628 156.243 49.3218 156.137 49.7104Z" fill="white"></path>
    <path d="M45.7333 70.8207H44.1778V73.8466H42.8345V65.6636H46.0279C47.607 65.6636 48.7853 66.7469 48.7853 68.2539C48.7853 69.3725 48.1254 70.2555 47.1238 70.6323L49.0092 73.8466H47.4891L45.7333 70.8207ZM44.1778 69.5609H45.9454C46.841 69.5609 47.4066 69.0075 47.4066 68.2422C47.4066 67.4768 46.8292 66.9235 45.9454 66.9235H44.1778V69.5609Z" fill="white"></path>
    <path d="M55.3372 72.575V73.8466H50.4469V65.6636H55.2076V66.9235H51.7902V69.0663H54.9012V70.3026H51.7902V72.5868H55.3372V72.575Z" fill="white"></path>
    <path d="M56.4213 71.2681H57.7882C57.7882 72.1865 58.5424 72.6928 59.4969 72.6928C60.3689 72.6928 61.1113 72.2336 61.1113 71.48C61.1113 70.6676 60.2393 70.4557 59.2494 70.232C58.0003 69.9259 56.5627 69.5844 56.5627 67.8889C56.5627 66.4172 57.6822 65.5459 59.4262 65.5459C61.2056 65.5459 62.2543 66.5114 62.2543 68.0538H60.9227C60.9227 67.2414 60.2511 66.794 59.3908 66.794C58.5778 66.794 57.8943 67.1707 57.8943 67.8301C57.8943 68.5836 58.7309 68.7955 59.709 69.0192C60.9817 69.3371 62.4782 69.7021 62.4782 71.4565C62.4782 73.0931 61.1584 73.9644 59.4969 73.9644C57.6822 73.9761 56.4213 72.94 56.4213 71.2681Z" fill="white"></path>
    <path d="M69.2657 66.9117H66.8618V73.8466H65.5185V66.9117H63.1145V65.6636H69.2657V66.9117Z" fill="white"></path>
    <path d="M74.6745 72.0687H71.0215L70.3263 73.8466H68.9004L72.1881 65.6636H73.449L76.8428 73.8466H75.3816L74.6745 72.0687ZM71.4811 70.8678H74.2032L72.8363 67.418L71.4811 70.8678Z" fill="white"></path>
    <path d="M77.6559 70.7854V65.6636H79.011V70.7029C79.011 71.9157 79.8123 72.7045 80.9553 72.7045C82.0866 72.7045 82.8879 71.9039 82.8879 70.7029V65.6636H84.2431V70.7854C84.2431 72.6692 82.8408 73.9997 80.9553 73.9997C79.0581 73.9997 77.6559 72.6692 77.6559 70.7854Z" fill="white"></path>
    <path d="M89.1334 70.8207H87.5779V73.8466H86.2345V65.6636H89.428C91.007 65.6636 92.1854 66.7469 92.1854 68.2539C92.1854 69.3725 91.5255 70.2555 90.5239 70.6323L92.4211 73.8466H90.9127L89.1334 70.8207ZM87.5779 69.5609H89.3455C90.2411 69.5609 90.8067 69.0075 90.8067 68.2422C90.8067 67.4768 90.2293 66.9235 89.3455 66.9235H87.5779V69.5609Z" fill="white"></path>
    <path d="M98.6548 72.0687H95.0018L94.3065 73.8466H92.8806L96.1684 65.6636H97.4292L100.811 73.8466H99.35L98.6548 72.0687ZM95.4731 70.8678H98.1952L96.8283 67.418L95.4731 70.8678Z" fill="white"></path>
    <path d="M108.73 65.6636V73.8466H107.599L103.345 68.0067V73.8466H102.025V65.6636H103.239L107.41 71.4094V65.6636H108.73Z" fill="white"></path>
    <path d="M116.166 66.9117H113.762V73.8466H112.418V66.9117H110.014V65.6636H116.166V66.9117Z" fill="white"></path>
    <path d="M56.5391 24.8551C56.6687 26.4564 60.1567 27.7162 62.0304 27.7162H96.9814C98.855 27.7162 102.343 26.4564 102.473 24.8551H56.5391Z" fill="white"></path>
    <path d="M81.8744 2.15471C82.4636 2.22536 83.0057 1.81327 83.0882 1.21279C83.1589 0.624086 82.7464 0.082479 82.1455 6.05052e-05C81.5563 -0.0705839 81.0142 0.341508 80.9317 0.941986C80.861 1.54246 81.2735 2.08407 81.8744 2.15471Z" fill="white"></path>
    <path d="M81.7684 2.92003C71.4692 1.62488 62.0539 8.81884 60.5692 19.0387L98.3247 23.7837C99.4089 13.5049 92.0793 4.21518 81.7684 2.92003ZM95.3316 15.8126C95.2609 15.8244 95.1784 15.7891 95.1313 15.7184C94.5421 14.8354 93.9529 13.9759 93.3284 13.1399C93.1634 12.9398 93.0102 12.7278 92.857 12.5159L92.3739 11.9036C92.0557 11.5033 91.714 11.103 91.3722 10.7262C90.6888 9.94914 89.9582 9.23093 89.1922 8.53626C88.4263 7.85336 87.6132 7.21756 86.753 6.62886C86.6587 6.56999 86.6233 6.45225 86.6705 6.36983C86.7058 6.29918 86.7883 6.27564 86.859 6.31096C87.8371 6.66418 88.7798 7.21756 89.6636 7.86514C90.5474 8.51271 91.3487 9.26625 92.0911 10.0787C92.4564 10.4908 92.7981 10.9146 93.1398 11.3503C93.458 11.7977 93.7762 12.2451 94.059 12.7043C94.6246 13.6344 95.1077 14.5999 95.4495 15.6007C95.473 15.6949 95.4141 15.8009 95.3316 15.8126Z" fill="white"></path>
  </g>
  <defs>
    <clipPath id="clip0_36_259">
      <rect width="159" height="74" fill="white"></rect>
    </clipPath>
  </defs>
</svg>
